<svg width="24" height="24" viewBox="0 0 24 24" fill="none" xmlns="http://www.w3.org/2000/svg">
  <path d="M11.12 2.21L9.38 6.04C9.24036 6.3667 8.99055 6.63845 8.67194 6.80613C8.35334 6.97381 7.9845 7.02531 7.63 6.95L3.49 6.11C2.95 6.01 2.5 6.45 2.58 7L3.39 11.12C3.47045 11.4776 3.41675 11.8491 3.24149 12.1673C3.06622 12.4855 2.78197 12.7295 2.44 12.85L1 13.36C0.55 13.53 0.36 14.09 0.64 14.47L8.68 22.94C8.88 23.16 9.21 23.19 9.45 23.01L11.89 21.11C12.1368 20.9176 12.4378 20.8161 12.745 20.8212C13.0522 20.8263 13.3494 20.9377 13.59 21.14L15.87 22.95C16.12 23.15 16.46 23.09 16.63 22.84L22.97 14.26C23.21 13.91 23.02 13.42 22.58 13.32L19.8 12.75C19.4443 12.6776 19.1344 12.4749 18.9346 12.1842C18.7349 11.8935 18.6613 11.5392 18.73 11.2L19.38 7.98C19.47 7.54 19.13 7.12 18.68 7.13L14.55 7.21C14.2022 7.2211 13.8621 7.11094 13.5906 6.89571C13.3191 6.68048 13.1331 6.37344 13.06 6.03L12.39 2.45C12.29 2 11.74 1.87 11.42 2.21H11.12Z" stroke="#8B5CF6" stroke-width="2" stroke-linecap="round" stroke-linejoin="round"/>
  <path d="M8 16C8 14.9 8.9 14 10 14C11.1 14 12 14.9 12 16C12 17.1 11.1 18 10 18C8.97 18 8 17.1 8 16Z" stroke="#8B5CF6" stroke-width="2" stroke-linecap="round" stroke-linejoin="round"/>
  <path d="M13 9.5C13 8.4 13.9 7.5 15 7.5C16.1 7.5 17 8.4 17 9.5C17 10.6 16.1 11.5 15 11.5C13.9 11.5 13 10.6 13 9.5Z" stroke="#8B5CF6" stroke-width="2" stroke-linecap="round" stroke-linejoin="round"/>
</svg>